# xmcd CD database file
#
# Track frame offsets:
#	150
#	26190
#	54736
#	80014
#	108613
#	131139
#	156567
#	183259
#	211082
#	238352
#
# Disc length: 3357 seconds
#
# Revision: 0
# Processed by: cddbd v1.5.2PL0 Copyright (c) Steve Scherf et al.
# Submitted via: CDex 1.70beta2
#
DISCID=960d1b0a
DTITLE=Claire Voyant - Lustre
DYEAR=2009
DGENRE=New Age
TTITLE0=Lustre
TTITLE1=Shine
TTITLE2=Into Oblivion
TTITLE3=Another Day (The Subtle Thief of Youth)
TTITLE4=Mercurial
TTITLE5=Painted Gold
TTITLE6=Lost
TTITLE7=Flicker
TTITLE8=Broadcast
TTITLE9=Washaway
EXTD=YEAR: 2009
EXTT0=
EXTT1=
EXTT2=
EXTT3=
EXTT4=
EXTT5=
EXTT6=
EXTT7=
EXTT8=
EXTT9=
PLAYORDER=
